<?xml version="1.0" encoding="utf-8"?>
<!-- Generator: Adobe Illustrator 26.5.0, SVG Export Plug-In . SVG Version: 6.00 Build 0)  -->
<svg version="1.1" id="Camada_1" xmlns="http://www.w3.org/2000/svg" xmlns:xlink="http://www.w3.org/1999/xlink" x="0px" y="0px"
	 viewBox="0 0 2263.75 827.12" style="enable-background:new 0 0 2263.75 827.12;" xml:space="preserve">
<style type="text/css">
	.st0{fill:#2E4074;}
	.st1{fill:url(#SVGID_1_);}
	.st2{fill:url(#SVGID_00000071546764105981457830000008042882980982272898_);}
	.st3{fill:url(#SVGID_00000004522346742824959900000009862919368303655853_);}
	.st4{fill:url(#SVGID_00000065038574848212914120000005760320954460115885_);}
	.st5{fill:url(#SVGID_00000065772442404216475840000001656796619880844934_);}
	.st6{fill:url(#SVGID_00000175312459003642023020000009633100379000458408_);}
	.st7{fill:#353535;}
	.st8{fill:none;}
	.st9{font-family:'Arial-BoldMT';}
	.st10{font-size:110px;}
	.st11{letter-spacing:90;}
</style>
<g>
	<path class="st0" d="M2043.55,281.59c0.15-9.32,0.11-34.64-0.02-43.96c-0.04-2.81,0.76-3.68,3.63-3.67c27.33,0.1,54.65,0.1,81.98,0
		c3.02-0.01,3.5,1.15,3.5,3.79c-0.06,58.15-0.07,116.31,0.02,174.46c0.01,3.14-0.92,3.93-3.94,3.87c-9.99-0.18-20,0.14-29.99-0.17
		c-4.11-0.13-5.26,0.92-5.24,5.15c0.19,34.66,0.1,69.32,0.1,103.98c0,34.49-0.06,79.98,0.08,114.48c0,0.03,0-1.94,0-1.91
		c2.97-0.23,5.97,1.07,8.96,1.19c0.01-2.7-0.01-15.26-0.09-17.83c-0.08-2.55,1.04-3.03,3.26-2.99c6.65,0.1,13.3,0.04,20.58,0.94
		c-7.31,5.86-16.62,13.73-24.8,20.3l-6.7,13.79c0,0,22.55,0.02,28.83,0.02c0.09,0.35,0.18,0.69,0.28,1.04
		c-6.3,5.03-15.61,13.08-22.59,18.65l-4.84,8.27c7.98,0.07,24.96,0.1,32.95-0.02c2.38-0.04,3.18,0.75,3.13,3.13
		c-0.14,5.65-0.15,11.31,0,16.96c0.07,2.55-1.04,3.06-3.27,2.99c-3.99-0.13-7.98-0.04-11.97-0.04c-3.31,0-18.61-0.06-21.92-0.01
		l1.57,12.01c28.71,0,68.41,0,97.12,0c0.83,0,1.67-0.07,2.5,0.01c2.07,0.2,3.15-0.5,2.94-2.77c-0.13-1.49-0.22-3.03,0.02-4.49
		c0.69-4.14-1.25-4.87-4.98-4.83c-15.83,0.19-31.67-0.11-47.5,0.2c-4.63,0.09-5.67-1.25-5.66-5.74c0.14-87.5,0.1-175,0.1-262.49
		c0-11.88,0-11.88,11.8-11.88c35.17,0,70.33-0.02,105.5,0.04c2.94,0.01,4.88,0.08,4.87-4.01c-0.01-3.98-1.77-4.09-4.8-4.08
		c-37.5,0.07-75,0.02-112.5,0.1c-3.25,0.01-4.99-0.13-4.98-4.37c0.16-57.83,0.15-115.66,0.03-173.5c-0.01-3.72,1.3-4.34,4.58-4.26
		c8.16,0.21,16.34-0.1,24.5,0.15c3.41,0.1,4.27-1.08,4.08-4.25c-0.17-2.74,0.38-5.11-3.91-4.93c-8.15,0.35-16.33-0.08-24.49,0.19
		c-3.63,0.12-4.81-0.73-4.77-4.61c0.23-18-0.03-36,0.2-54c0.05-3.93-1.23-4.61-4.79-4.62c-3.55-0.01-4.42,1.03-4.39,4.5
		c0.18,17.83-0.05,35.67,0.18,53.5c0.05,4.1-0.91,5.27-5.15,5.25c-29-0.2-58,0-87-0.22c-4.62-0.03-6.27,0.79-6.1,5.84
		c0.39,11.4-0.02,35.82,0.21,47.23L2043.55,281.59z M2102.58,490.92c-0.01-1.6,0.01-2.95,2.26-2.92c6.23,0.08,12.46,0.03,20.14,0.03
		c-7.91,6.35-14.68,11.78-22.39,17.97C2102.58,500.18,2102.6,495.55,2102.58,490.92z M2132.56,493.56c0,6.14-0.04,11.22,0.02,16.3
		c0.03,2.32-1.52,2.15-3.03,2.15c-6.15,0-12.31,0-20.1,0C2117.58,505.52,2124.64,499.89,2132.56,493.56z M2132.56,526.58
		c0,6.16-0.01,11.36,0,16.57c0,2.05-1.47,1.85-2.8,1.85c-6.28,0.01-12.56,0-20.33,0C2117.64,538.46,2124.64,532.89,2132.56,526.58z
		 M2132.57,558.77c0,5.59-0.09,10.13,0.04,14.68c0.07,2.44-1.27,2.59-3.12,2.58c-5.62-0.05-11.24-0.02-16.87-0.02
		c-0.15-0.33-0.31-0.65-0.46-0.98C2118.67,569.85,2125.17,564.67,2132.57,558.77z M2129.74,480.02c-5.79-0.04-11.57-0.01-17.36-0.01
		c-0.14-0.34-0.29-0.67-0.43-1.01c6.57-5.23,13.14-10.47,20.62-16.43c0,5.68-0.07,10.4,0.03,15.11
		C2132.65,479.89,2131.4,480.03,2129.74,480.02z M2132.58,430.56c0,6.07-0.04,10.88,0.02,15.69c0.02,1.76-0.33,2.81-2.43,2.78
		c-6.43-0.09-12.85-0.03-20.71-0.03C2117.58,442.52,2124.62,436.9,2132.58,430.56z M2105.37,424c6.43,0.05,12.85,0.02,19.28,0.02
		c0.13,0.33,0.25,0.66,0.38,1c-7.18,5.75-14.36,11.5-22.44,17.97c0-6.2,0.06-11.41-0.03-16.61
		C2102.52,424.24,2103.66,423.99,2105.37,424z M2105.18,456.99c6.1,0.07,12.19,0.03,19.81,0.03c-7.86,6.32-14.63,11.75-22.4,18
		c0-5.9,0.06-10.67-0.03-15.44C2102.53,457.65,2103.28,456.97,2105.18,456.99z M2105.08,519.99c6.55,0.08,13.11,0.03,21.19,0.03
		c-8.33,6.67-15.48,12.41-23.68,18.98c0-6.18,0.05-11.25-0.02-16.33C2102.54,520.84,2103.08,519.97,2105.08,519.99z M2104.96,553.01
		c6.26,0.05,12.52,0.02,20.31,0.02c-8.07,6.46-14.95,11.97-22.68,18.15c0-6.01,0.04-10.94-0.02-15.86
		C2102.55,553.56,2103.31,552.99,2104.96,553.01z M2102.6,603.99c0-6.63,0.01-12.32-0.01-18c-0.01-1.53,0.81-1.97,2.19-1.97
		c7.07,0.02,14.13,0.01,22.71,0.01C2118.72,591.07,2111.14,597.14,2102.6,603.99z M2109.43,610c8.27-6.58,15.25-12.14,23.14-18.42
		c0,6.04-0.04,11.1,0.02,16.16c0.02,1.77-0.78,2.29-2.41,2.28C2123.75,609.98,2117.32,610,2109.43,610z M2108.18,645.01
		c8.65-6.89,16.03-12.77,24.34-19.4c0,6.51,0.03,12.18-0.02,17.85c-0.01,1.71-1.4,1.54-2.53,1.55
		C2123.23,645.01,2116.48,645.01,2108.18,645.01z M2132.54,671.26c0.06,1.68-1.16,1.74-2.39,1.74c-4.61,0-9.22,0-13.83,0l-0.32-1.03
		c5.19-4.14,10.38-8.27,16.01-12.76C2133.05,663.5,2132.41,667.41,2132.54,671.26z"/>
	<linearGradient id="SVGID_1_" gradientUnits="userSpaceOnUse" x1="1620.1113" y1="244.0557" x2="1617.938" y2="629.9675">
		<stop  offset="0" style="stop-color:#353535"/>
		<stop  offset="1" style="stop-color:#2E4074"/>
	</linearGradient>
	<path class="st1" d="M1426.46,494.24c0-71.66,0.07-143.32-0.14-214.98c-0.02-5.41,1.61-6.39,6.6-6.36
		c38.33,0.22,76.66-0.15,114.99,0.22c38.2,0.37,76.2,3.03,113.45,12.48c52.34,13.28,90.45,45.14,118.21,90.44
		c20.1,32.8,29.81,68.77,32.11,106.97c2.43,40.4-2.88,79.51-20.23,116.37c-25.7,54.59-67.15,91.2-125.79,107.01
		c-23.25,6.27-47.35,7.45-71.32,8.45c-54.64,2.29-109.31,0.72-163.96,1.27c-4.81,0.05-3.92-2.68-3.92-5.39
		c0-63.49,0-126.99,0-190.49C1426.46,511.57,1426.46,502.91,1426.46,494.24z M1518.65,494.28c0,16.66,0,33.32,0,49.98
		c0,28.32,0,56.64,0.01,84.96c0,2.39-0.78,4.91,3.43,4.86c32.62-0.39,65.24,0.7,97.76-3.87c41.94-5.9,70.58-28.74,86.89-67.06
		c14.52-34.11,15.27-69.8,7.34-105.44c-8.98-40.41-31.61-70.68-70.48-87.33c-15.24-6.53-31.31-10.05-47.68-12.4
		c-23.68-3.41-47.51-2.83-71.32-3.05c-4.68-0.04-6.12,0.93-6.09,5.9C1518.74,405.32,1518.65,449.8,1518.65,494.28z"/>
	
		<linearGradient id="SVGID_00000130649206891539478730000006713591891687826336_" gradientUnits="userSpaceOnUse" x1="1968.0431" y1="268.4622" x2="1968.3099" y2="536.7061">
		<stop  offset="0" style="stop-color:#353535"/>
		<stop  offset="1" style="stop-color:#2E4074"/>
	</linearGradient>
	<path style="fill:url(#SVGID_00000130649206891539478730000006713591891687826336_);" d="M2047.87,273.1
		c15.49-0.2,30.99,0.05,46.49-0.18c4.14-0.06,5.71,0.63,5.65,5.33c-0.28,23.82-0.26,47.66-0.01,71.48c0.05,4.53-1.27,5.43-5.57,5.42
		c-54.32-0.15-108.64-0.07-162.96-0.17c-3.7-0.01-5.15,0.63-5.11,4.81c0.22,23.49,0.22,46.99,0,70.48
		c-0.04,4.14,1.35,4.83,5.07,4.82c38.66-0.12,77.32-0.01,115.97-0.17c4.04-0.02,5.32,0.81,5.28,5.1c-0.23,23.99-0.22,47.99,0,71.98
		c0.04,4.25-1.17,5.16-5.25,5.14c-38.66-0.16-77.32-0.05-115.97-0.17c-3.72-0.01-5.12,0.66-5.1,4.82c0.18,35.82,0.18,71.65,0,107.48
		c-0.02,4.14,1.35,4.83,5.07,4.82c52.32-0.11,104.64-0.15,156.96,0.06c0.55,0,1.04-0.02,1.48-0.06l12.62,0.07l0.05,67.02l0.06,14.94
		c-87.61,0-174.83-0.1-262.44,0.03c-5.09,0.01-5.81-1.59-5.8-6.14c0.14-72,0.1-144,0.1-216c0-71.5-0.01-143,0.02-214.49
		c0-7.61-1.01-6.48,6.69-6.48c62.67-0.03,125.33-0.06,188,0.08L2047.87,273.1z"/>
	
		<linearGradient id="SVGID_00000173162633714714806700000006120194932711054216_" gradientUnits="userSpaceOnUse" x1="634.4481" y1="186.2513" x2="630.0114" y2="617.6754">
		<stop  offset="0" style="stop-color:#353535"/>
		<stop  offset="1" style="stop-color:#2E4074"/>
	</linearGradient>
	<path style="fill:url(#SVGID_00000173162633714714806700000006120194932711054216_);" d="M787.13,716.01
		c-33.53,0-66.01-0.05-98.5,0.08c-3.17,0.01-3.83-2.1-4.95-4.01c-26.66-45.73-53.3-91.47-79.95-137.21
		c-8.3-14.24-16.81-28.36-24.76-42.79c-2.18-3.96-4.89-4.26-8.51-4.06c-1.64,0.09-2.49,0.64-2.47,2.33c0.01,1.5-0.03,3-0.03,4.5
		c0,58.49-0.05,116.97,0.09,175.46c0.01,4.39-0.91,5.87-5.66,5.83c-27.33-0.25-54.65-0.19-81.98-0.04
		c-3.75,0.02-5.05-0.73-5.05-4.84c0.12-144.47,0.11-288.94,0.01-433.41c0-3.95,1.06-4.94,4.96-4.93
		c36.66,0.17,73.32-0.21,109.97,0.27c29.82,0.39,59.65,1.76,88.64,9.81c47.22,13.11,81.3,55.53,84.79,104.47
		c1.65,23.15-0.37,45.6-10.17,66.88c-11.46,24.89-30.98,41.64-55.04,53.68c-7,3.5-14.15,6.74-21.65,8.96
		c-4.39,1.3-4.27,2.83-2.18,6.39c34.92,59.6,69.71,119.28,104.52,178.95C781.72,706.59,784.17,710.89,787.13,716.01z M567.97,400.16
		c0,13.82,0.11,27.65-0.07,41.47c-0.05,3.5,0.99,4.53,4.49,4.46c11.49-0.24,22.99,0.12,34.47-0.27c14.81-0.5,29.62-1.47,43.71-6.79
		c10.58-4,18-11.17,21.64-21.98c9.14-27.1-5.75-53.31-33.81-58.83c-22.39-4.41-45.12-2.99-67.75-3.2c-3.34-0.03-2.65,2.31-2.65,4.16
		C567.95,372.84,567.97,386.5,567.97,400.16z"/>
	<path class="st0" d="M215.29,598.92c-0.3-2.46,0.03-4.99,0.03-7.49c0.08-101.16,0.16-202.32,0.24-303.48c0.01-10.8,0-21.6,0-32.62
		c1.12,0.19,1.77,0.25,2.4,0.41c24.7,6.23,49.37,12.57,74.11,18.62c3.84,0.94,3.88,3.08,3.88,6.08
		c-0.1,51.16-0.14,102.32-0.19,153.49c-0.01,14.17,0.08,28.33-0.06,42.5c-0.03,3.02-0.08,4.02-0.08,4.02s28.23,0.02,31.34,0.03
		l-3.92-7.6l-18.85,0.04c0.3-64.83,0.37-135.65,0.69-200.48c0.02-4.11-1.02-5.77-4.99-6.81c-30.26-7.98-60.48-16.14-90.66-24.39
		c-4.02-1.1-3.92,0.84-3.91,3.69c0.11,35.16,0.09,74.33,0.28,109.49c0,0-0.95,0.98-3.89,2.49c-21.93,11.24-43.69,22.79-65.66,33.96
		c-6.11,3.11-8.61,4.22-8.61,4.22c0.3,24.99,0.41,76,0.13,100.99l12.89,10.71c0,0,0.01-2.06,0.01-2.86
		c-0.12-30.66-0.15-70.33-0.42-100.99c0,0,2.19-0.97,7.57-3.78c16.67-8.72,33.19-17.72,49.77-26.61c8.03-4.3,8.03-4.39,8.03-4.39
		c0,74,0.03,156.99-0.08,230.99L215.29,598.92z"/>
	
		<linearGradient id="SVGID_00000095333711076090122360000015655556758022567066_" gradientUnits="userSpaceOnUse" x1="340.5162" y1="27.9127" x2="338.9485" y2="708.5618">
		<stop  offset="0" style="stop-color:#353535"/>
		<stop  offset="1" style="stop-color:#2E4074"/>
	</linearGradient>
	<path style="fill:url(#SVGID_00000095333711076090122360000015655556758022567066_);" d="M319.7,486.21
		c-0.18,74.83-0.08,149.66-0.24,224.48c-0.01,4.46,1.13,5.46,5.48,5.42c27.5-0.21,55-0.28,82.49,0.04c5.28,0.06,6.14-1.54,6.13-6.37
		c-0.1-120.66,0.15-241.32-0.13-361.97c-0.06-27.35,0.21-54.67-1.47-82.09c-2.2-36.03-0.56-72.3-0.5-108.46
		c0.01-2.85-0.17-5.02-3.85-4.41c-4.33,0.72-5.05-1.42-5.07-5.34c-0.05-8.95,2.31-18.45-5.97-26.79c17.12,0,32.78,0.01,48.43,0
		c29.66-0.03,59.33-0.04,88.99-0.11c5.68-0.01,11.02,0.58,14.63,5.77c0.67,0.96,1.7,1.72,2.95,1.65c4.45-0.25,5.45,2.7,6.28,6.22
		c4.08,17.33,8.29,34.64,12.47,51.95c0.94,3.87,0.8,7.39-1.65,10.91c-2.99,4.31-2.12,8.78,1.69,11.97
		c3.39,2.84,8.08,2.83,11.45-0.03c3.81-3.23,4.48-7.58,1.34-11.96c-1.92-2.68-2.4-5.18-1.63-8.37c4.37-18.29,8.64-36.61,12.77-54.96
		c0.8-3.56,2.03-5.8,6.12-5.62c2.13,0.1,3.74-1.41,4.94-3.04c2.52-3.44,5.95-4.51,10.02-4.5c19.83,0.06,39.66,0.04,59.49,0.08
		c2,0,4.25,0.55,5.36-1.61c1.13-2.21-0.22-4.07-1.49-5.92c-5.94-8.65-11.95-17.25-17.6-26.08c-2.83-4.42-6.36-6.18-11.59-6.15
		c-25.5,0.18-50.99,0.08-76.49,0.1c-5.03,0-9.98-0.5-14.78-2.1c-66.17-22.04-132.35-44.08-198.52-66.12
		c-4.58-1.52-8.4-3.78-10.39-8.59c-1.34-3.25-4.12-4.97-7.7-3.92c-3.81,1.12-7.59,3.05-7.11,7.75c0.56,5.5-2.07,9.11-5.53,12.71
		c-19.77,20.52-39.76,40.84-59.04,61.82c-6.59,7.17-13.41,9.99-23.07,9.69c-20.48-0.65-40.99-0.15-61.49-0.08
		c-1.67,0.01-4.09-0.69-3.83,2.36c0.25,3.04-1.54,3.03-3.76,3.03c-45.66-0.02-91.32,0.01-136.99,0.01c-11.33,0-22.66-0.16-33.99-0.1
		c-5.78,0.03-6.95,1.53-6.86,7.25c0.14,8.66,0.16,17.33,0.2,25.99c0.03,8.37,0.09,8.46,8.3,8.46c52,0,103.99,0,155.99,0
		c4.33,0,8.67,0.02,13,0.09c1.26,0.02,3.23-0.32,3.1,1.54c-0.33,4.9,2.89,4.17,5.87,4.17c47.33,0.01,94.66,0.06,141.99,0.04
		c3.31,0,5.48,0.05,5.49,4.61c0.01,4.46-2.19,4.42-5.22,4.27c-1.16-0.06-2.35,0.13-3.5-0.01c-3.24-0.39-4.36,0.89-4.25,4.2
		c0.26,7.49,0.35,15,0.17,22.49c-0.79,33.31-0.21,66.61-1.09,99.95c-1.61,60.79-0.46,121.65-0.46,182.48L319.7,486.21z
		 M232.12,139.23c-5.14-0.14-10.29-0.04-15.44-0.04c-5.31,0-10.63-0.11-15.93,0.04c-2.57,0.07-3.58-0.74-3.45-3.39
		c0.18-3.81,0.18-7.64,0-11.45c-0.12-2.69,1-3.37,3.51-3.35c10.46,0.1,20.92,0.11,31.37,0c2.59-0.03,3.54,0.77,3.4,3.41
		c-0.2,3.81-0.21,7.64,0,11.45C235.73,138.64,234.61,139.3,232.12,139.23z M234.72,114.91c-2.78,3.03-8.8,0.65-13.39,0.97
		c-1.65,0.11-3.32,0.02-4.98,0.02c-4.98,0-9.97-0.13-14.95,0.05c-2.84,0.1-4.07-0.51-4.15-3.77c-0.37-14.48-0.48-14.48,13.83-14.48
		c6.81,0,13.63,0.1,20.44-0.05c2.81-0.06,4.38,0.43,4.06,3.77C235.14,106.02,237.43,111.97,234.72,114.91z M254.58,97.71
		c8.16,0,16.33,0.12,24.49-0.06c3.08-0.07,3.9,0.96,3.96,3.99c0.29,14.27,0.38,14.26-13.63,14.26h-7.5
		c-5.83,0-11.67-0.13-17.49,0.05c-2.86,0.09-3.61-0.92-3.69-3.72C240.32,97.7,240.24,97.71,254.58,97.71z M269.4,139.19h-7.49
		c-5.99-0.01-11.98-0.08-17.97,0.03c-2.36,0.04-3.44-0.78-3.14-3.18c0.02-0.16,0.01-0.33,0-0.5c-0.58-14.46-0.58-14.46,13.8-14.46
		c8.15,0,16.31,0.12,24.46-0.06c3.06-0.07,3.91,0.94,3.98,3.97C283.35,139.19,283.44,139.19,269.4,139.19z M317.55,115.9
		c-8.48,0-16.96-0.09-25.43,0.05c-2.76,0.05-3.67-0.76-3.77-3.63c-0.51-14.62-0.6-14.61,13.68-14.61h8.48
		c5.98,0.01,11.97,0.08,17.95-0.02c2.29-0.04,3.49,0.66,3.18,3.11c-0.02,0.16-0.01,0.33,0,0.5
		C332.25,115.9,332.25,115.9,317.55,115.9z M330.81,138.17c-2.38,3-8.38,0.88-12.8,0.97c-8.64,0.17-17.28-0.04-25.91,0.1
		c-2.74,0.04-3.66-0.73-3.75-3.61c-0.47-14.54-0.55-14.54,13.73-14.54h7.97c6.15,0,12.29,0.08,18.44-0.03
		c2.33-0.04,3.44,0.71,3.16,3.12c-0.04,0.33,0.01,0.66,0,1C331.51,129.62,333.02,135.37,330.81,138.17z M340.87,217.55h-0.07
		c0,16.81-0.15,33.62,0.11,50.43c0.07,4.27-1.24,5.3-5.3,5.17c-3.66-0.12-5.6-0.3-5.57-4.95c0.23-34.45,0.22-68.9,0.06-103.35
		c-0.02-4.39,2.41-3.86,5.07-3.79c2.82,0.07,5.89-1.03,5.81,4.07C340.7,182.6,340.87,200.08,340.87,217.55z M341.51,52.7
		c-0.09,0-0.19,0-0.28,0c0,9.99-0.13,19.97,0.07,29.96c0.07,3.34-0.99,4.5-4.26,4.2c-2.18-0.2-4.86-0.8-4.57,3.13
		c0.17,2.26-1.87,1.92-3.28,1.92c-19.31,0.05-38.61,0.07-57.92,0.07c-1.07,0-2.58,0.53-2.95-1.05c-0.35-1.5,0.96-2.36,1.87-3.31
		c10.24-10.7,20.49-21.4,30.74-32.09c11.17-11.65,22.35-23.3,33.55-34.93c1.45-1.51,2.7-3.76,5.34-2.63
		c2.41,1.03,1.67,3.35,1.68,5.27C341.52,33.06,341.51,42.88,341.51,52.7z M567.67,89.46c0.01-1.94,1.37-2.55,3.02-2.56
		c5.75-0.04,11.5-0.01,18.24-0.01c-7.33,8.42-13.84,15.91-21.27,24.45C567.66,103.19,567.64,96.33,567.67,89.46z M344.83,70.46
		c0-5.66,0-11.32,0-16.98c0-7.99-0.01-15.98,0.01-23.97c0-1.1-0.52-2.67,0.93-3.04c1.57-0.39,1.62,1.26,1.98,2.29
		c6.18,17.55,12.34,35.1,18.53,52.65c1.09,3.1,0.26,4.51-3.21,4.95C346.46,88.46,344.83,87.11,344.83,70.46z M382.67,235.54
		c-11.43-10.76-21.92-20.64-33.37-31.43c11.15,0,21.04,0.03,30.93-0.03c2.11-0.01,2.46,1.09,2.46,2.82
		C382.65,216.03,382.67,225.15,382.67,235.54z M348.69,166.41c10.85,10.34,20.8,19.83,30.76,29.31c0.61,0.58,1.29,1.21,1.03,2.11
		c-0.36,1.25-1.54,1.06-2.49,1.06c-8.81,0.03-17.62-0.05-26.42,0.08c-2.64,0.04-2.93-1.23-2.92-3.37
		C348.73,186.31,348.69,177.03,348.69,166.41z M348.69,210.17c10.96,10.28,20.98,19.68,30.99,29.09c0.57,0.54,1.42,1.04,1.08,2.02
		c-0.36,1.03-1.34,0.81-2.12,0.81c-9.14,0.04-18.28,0.01-27.42,0.09c-2.43,0.02-2.56-1.37-2.55-3.21
		C348.71,229.86,348.69,220.74,348.69,210.17z M382.67,164.38c0,8.65,0,17.3,0,27.51c-9.91-10.65-18.88-20.29-28.67-30.82
		c9.49,0,17.87,0.05,26.26-0.03C382.87,161.01,382.67,162.68,382.67,164.38z M348.6,280.19c0.29-8.59,0.09-17.2,0.09-27.13
		c10.67,10.02,20.38,19.11,30.06,28.23c0.8,0.75,2.1,1.42,1.5,2.83c-0.58,1.37-1.95,1.04-3.06,1.04
		c-7.99-0.03-15.98-0.08-23.97-0.17C350.11,284.96,348.47,283.86,348.6,280.19z M376.07,327.96c-7.99,0-15.98-0.02-23.98-0.04
		c-1.65,0-3.44,0.29-3.42-2.35c0.05-9.41,0.02-18.83,0.02-29.49c11.2,10.52,21.53,20.23,31.98,30.05
		C379.32,327.92,377.68,327.96,376.07,327.96z M382.67,321.57c-10.75-10.11-20.54-19.31-30.31-28.53c-0.67-0.64-1.91-1.15-1.5-2.31
		c0.51-1.46,1.98-0.9,3.03-0.9c8.46-0.05,16.93,0,25.39-0.05c2.04-0.01,3.48,0.15,3.44,2.85
		C382.6,301.87,382.67,311.11,382.67,321.57z M382.65,260.32c0.11,5.63,0.03,11.27,0.03,18.2c-11.55-10.85-22.16-20.83-33.82-31.79
		c7.48,0,13.84-0.15,20.19,0.05c4.41,0.14,10.1-2,12.89,0.99C384.45,250.47,382.57,256.02,382.65,260.32z M397.86,161.06
		c3.48-0.57,4.88,0.43,4.81,4.47c-0.27,17.14-0.12,34.3-0.12,51.45h-0.02c0,17.15-0.21,34.3,0.13,51.44c0.1,5-2.41,4.8-5.75,4.61
		c-3.08-0.18-6.41,1.24-6.37-4.51c0.27-34.3,0.28-68.6,0.01-102.89C390.5,158.88,394.84,161.56,397.86,161.06z M412.75,111.26
		c0.01,2.78-1.54,3.77-4.11,3.76c-4.96-0.03-9.92-0.01-16.08-0.01c6.29-7.82,11.85-14.76,17.44-21.68c0.47-0.58,0.91-1.5,1.95-1.09
		c1.02,0.4,0.77,1.36,0.77,2.12C412.76,100,412.74,105.63,412.75,111.26z M422.56,80.94c-6.39-0.02-11.15,1.97-14.92,7.22
		c-4.17,5.81-8.97,11.16-13.26,16.89c-2.45,3.28-4.46,3.23-7.15,0.34c-7.7-8.27-13.43-17.77-17.76-28.13
		c-7.89-18.88-13.81-38.48-21.06-57.59c-0.68-1.79-0.57-3.21,0.81-4.51c1.48-1.39,3.01-0.8,4.65-0.26
		c36.46,12.16,72.93,24.28,109.39,36.42c26.52,8.83,53.04,17.68,79.55,26.52c1.54,0.51,3.24,0.67,5.69,3.06c-5.03,0-8.77,0-12.5,0
		C498.18,80.95,460.37,81.06,422.56,80.94z M537.39,109.6c0-6.55-0.01-13.11,0.01-19.66c0-2.07,1.13-2.97,3.15-2.96
		c5.74,0.02,11.48,0.01,18.31,0.01c-7.16,8.22-13.61,15.64-20.07,23.05C538.32,109.89,537.85,109.75,537.39,109.6z M561.85,112.28
		c-0.03,2.11-1.67,2.66-3.51,2.66c-5.78,0-11.55,0-18.6,0c7.38-8.46,14.06-16.11,20.74-23.76l1.41,0.4
		C561.89,98.48,561.95,105.38,561.85,112.28z M589.82,132.68c-4.25,18.14-8.31,36.32-12.46,54.48c-0.09,0.41-0.57,0.73-0.86,1.09
		c-1.73-0.54-1.61-2.03-1.89-3.24c-4.12-17.31-8.13-34.65-12.4-51.93c-0.94-3.81,0.41-4.9,3.83-4.89
		c6.66,0.03,13.32,0.03,19.98,0.01C589.08,128.2,590.68,129.01,589.82,132.68z M591.58,110.94c0.02,2.62-1.02,4.08-3.8,4.07
		c-5.59-0.03-11.18-0.01-17.97-0.01c6.71-7.8,12.56-14.59,18.42-21.38c0.64-0.74,1.28-1.85,2.34-1.59c1.57,0.39,0.96,1.9,0.97,2.95
		C591.6,100.31,591.54,105.63,591.58,110.94z M600.05,108.5c-0.53,0.61-0.99,1.51-1.97,1.26c-1.23-0.31-1.17-1.41-1.17-2.41
		c0.01-5.66-0.01-11.32,0.04-16.98c0.02-2.45,1.32-3.54,3.81-3.51c5.63,0.07,11.26,0.02,18.1,0.02
		C612.04,94.73,606.05,101.62,600.05,108.5z M622.22,112.04c-0.03,1.61-1.13,2.86-2.9,2.88c-5.16,0.08-10.32,0.09-15.48,0.03
		c-1.55-0.02-2.95-0.8-1.58-2.45c6.12-7.32,12.39-14.52,18.61-21.76c0.46,0.18,0.93,0.37,1.39,0.55
		C622.27,98.22,622.33,105.13,622.22,112.04z M627.68,90.08c-0.01-2.37,1.31-3.2,3.47-3.2c5.77,0.01,11.54,0,18.57,0
		c-7.52,8.26-14.31,15.7-22.03,24.18C627.68,103.16,627.7,96.62,627.68,90.08z M652.67,112.51c-0.02,2.31-1.82,2.48-3.56,2.49
		c-5.97,0.01-11.94,0.01-19.19,0.01c7.82-8.79,14.85-16.69,22.78-25.6C652.7,97.85,652.74,105.18,652.67,112.51z M671.49,114.85
		c-3.46,0.18-6.93,0.1-10.4,0.04c-1.87-0.03-2.56-1.24-2.55-2.97c0-6.22,0-12.45,0-18.67c0.48-0.19,0.95-0.39,1.43-0.58
		c4.48,6.46,9,12.88,13.4,19.38C674.8,114.15,672.96,114.78,671.49,114.85z"/>
	
		<linearGradient id="SVGID_00000137814546895876257070000014591762595726103979_" gradientUnits="userSpaceOnUse" x1="1186.4987" y1="229.4878" x2="1183.5656" y2="661.5576">
		<stop  offset="0" style="stop-color:#353535"/>
		<stop  offset="1" style="stop-color:#2E4074"/>
	</linearGradient>
	<path style="fill:url(#SVGID_00000137814546895876257070000014591762595726103979_);" d="M1166.69,391.13
		c-7.53,17.49-14.71,34.11-21.85,50.75c-12.86,29.96-25.5,60.02-38.59,89.87c-14.9,33.97-28.87,68.32-43.08,102.57
		c-10.84,26.12-22.4,51.91-33.46,77.92c-0.83,1.96-1.29,3.86-4.3,3.84c-19.32-0.14-38.64-0.07-58.15-0.07
		c-0.49-2.28,0.86-3.92,1.58-5.62c57.35-136.3,114.75-272.59,172.14-408.88c3.42-8.12,7.09-16.16,10.19-24.4
		c1.31-3.48,3.22-4.21,6.62-4.18c16.66,0.16,33.33,0.2,49.99-0.02c3.89-0.05,5.72,1.02,7.29,4.75
		c36.38,86.47,72.92,172.88,109.42,259.3c24.46,57.92,48.91,115.85,73.36,173.78c2.22,5.25,2.2,5.27-3.23,5.27
		c-28.83,0-57.65-0.04-86.48,0.07c-3.06,0.01-4.62-0.72-5.87-3.76c-23.22-56.27-46.34-112.57-69.97-168.66
		c-21.18-50.27-42.96-100.29-64.48-150.42C1167.63,392.79,1167.36,392.37,1166.69,391.13z"/>
	
		<linearGradient id="SVGID_00000031193156651833884580000007982580194002415544_" gradientUnits="userSpaceOnUse" x1="861.553" y1="197.7231" x2="858.6021" y2="624.0105">
		<stop  offset="0" style="stop-color:#353535"/>
		<stop  offset="1" style="stop-color:#2E4074"/>
	</linearGradient>
	<path style="fill:url(#SVGID_00000031193156651833884580000007982580194002415544_);" d="M905.55,495.02
		c0,71.66-0.07,143.32,0.14,214.98c0.02,5.25-1.5,6.17-6.34,6.12c-27-0.24-53.99-0.19-80.99-0.03c-3.78,0.02-5.05-0.78-5.04-4.86
		c0.11-144.49,0.11-288.98,0-433.46c0-4.11,1.31-4.86,5.06-4.84c27.16,0.15,54.33,0.18,81.49-0.02c4.41-0.03,5.81,0.91,5.8,5.63
		C905.5,350.7,905.55,422.86,905.55,495.02z"/>
	<path class="st7" d="M931.91,716.01c3.49-8.32,6.67-15.96,9.9-23.59c58.54-138.3,117.11-276.59,175.55-414.93
		c1.47-3.48,3.16-4.78,6.92-4.57c5.97,0.33,11.97,0.09,17.94,0.09c0.52,2.26-0.75,3.76-1.44,5.38
		c-61.13,144.43-122.29,288.85-183.36,433.31c-1.35,3.2-2.9,4.6-6.52,4.4C944.8,715.77,938.69,716.01,931.91,716.01z"/>
	<path class="st7" d="M1011.48,121.24c-21.32,20.75-41.84,40.73-62.37,60.71c-18.27,17.77-36.59,35.48-54.76,53.36
		c-2.82,2.78-5.64,3.89-9.64,3.84c-17.82-0.23-35.65-0.1-53.47-0.1c-1.62,0-3.24,0-4.92,0c-0.09-2.25,1.31-3.36,2.19-4.68
		c24.47-36.51,48.97-72.99,73.43-109.5c1.53-2.28,2.86-3.97,6.18-3.95c33.32,0.16,66.63,0.09,99.95,0.1
		C1008.85,121.02,1009.64,121.12,1011.48,121.24z"/>
</g>
<rect x="336.41" y="746.19" class="st8" width="1764.99" height="79.27"/>
<text transform="matrix(1 0 0 1 336.4056 824.9449)" class="st0 st9 st10 st11">CONSTRUTORA</text>
<rect x="235.78" y="312.88" class="st0" width="15.41" height="15.19"/>
<rect x="261.13" y="312.97" class="st0" width="15.41" height="15.19"/>
<rect x="235.66" y="332.88" class="st0" width="15.41" height="15.19"/>
<rect x="261.01" y="332.96" class="st0" width="15.41" height="15.19"/>
<rect x="235.6" y="353.16" class="st0" width="15.41" height="15.19"/>
<rect x="260.95" y="353.25" class="st0" width="15.41" height="15.19"/>
</svg>
